<svg width="137" height="40" viewBox="0 0 137 40" fill="none" xmlns="http://www.w3.org/2000/svg">
<path d="M13.168 39.336C10.704 39.336 8.496 38.936 6.544 38.136C4.592 37.336 3.024 36.152 1.84 34.584C0.688 33.016 0.0800002 31.128 0.0160002 28.92H8.752C8.88 30.168 9.312 31.128 10.048 31.8C10.784 32.44 11.744 32.76 12.928 32.76C14.144 32.76 15.104 32.488 15.808 31.944C16.512 31.368 16.864 30.584 16.864 29.592C16.864 28.76 16.576 28.072 16 27.528C15.456 26.984 14.768 26.536 13.936 26.184C13.136 25.832 11.984 25.432 10.48 24.984C8.304 24.312 6.528 23.64 5.152 22.968C3.776 22.296 2.592 21.304 1.6 19.992C0.608 18.68 0.112 16.968 0.112 14.856C0.112 11.72 1.248 9.272 3.52 7.512C5.792 5.72 8.752 4.824 12.4 4.824C16.112 4.824 19.104 5.72 21.376 7.512C23.648 9.272 24.864 11.736 25.024 14.904H16.144C16.08 13.816 15.68 12.968 14.944 12.36C14.208 11.72 13.264 11.4 12.112 11.4C11.12 11.4 10.32 11.672 9.712 12.216C9.104 12.728 8.8 13.48 8.8 14.472C8.8 15.56 9.312 16.408 10.336 17.016C11.36 17.624 12.96 18.28 15.136 18.984C17.312 19.72 19.072 20.424 20.416 21.096C21.792 21.768 22.976 22.744 23.968 24.024C24.96 25.304 25.456 26.952 25.456 28.968C25.456 30.888 24.96 32.632 23.968 34.2C23.008 35.768 21.6 37.016 19.744 37.944C17.888 38.872 15.696 39.336 13.168 39.336ZM34.6353 9.432C33.1953 9.432 32.0113 9.016 31.0833 8.184C30.1873 7.32 29.7393 6.264 29.7393 5.016C29.7393 3.736 30.1873 2.68 31.0833 1.848C32.0113 0.983997 33.1953 0.551997 34.6353 0.551997C36.0433 0.551997 37.1953 0.983997 38.0913 1.848C39.0193 2.68 39.4833 3.736 39.4833 5.016C39.4833 6.264 39.0193 7.32 38.0913 8.184C37.1953 9.016 36.0433 9.432 34.6353 9.432ZM38.7153 12.216V39H30.5073V12.216H38.7153ZM60.9835 11.928C64.1195 11.928 66.6155 12.952 68.4715 15C70.3595 17.016 71.3035 19.8 71.3035 23.352V39H63.1435V24.456C63.1435 22.664 62.6795 21.272 61.7515 20.28C60.8235 19.288 59.5755 18.792 58.0075 18.792C56.4395 18.792 55.1915 19.288 54.2635 20.28C53.3355 21.272 52.8715 22.664 52.8715 24.456V39H44.6635V12.216H52.8715V15.768C53.7035 14.584 54.8235 13.656 56.2315 12.984C57.6395 12.28 59.2235 11.928 60.9835 11.928ZM75.3753 25.56C75.3753 22.808 75.8873 20.392 76.9113 18.312C77.9673 16.232 79.3913 14.632 81.1833 13.512C82.9753 12.392 84.9753 11.832 87.1833 11.832C89.0713 11.832 90.7193 12.216 92.1273 12.984C93.5673 13.752 94.6713 14.76 95.4393 16.008V12.216H103.647V39H95.4393V35.208C94.6393 36.456 93.5193 37.464 92.0793 38.232C90.6713 39 89.0233 39.384 87.1353 39.384C84.9593 39.384 82.9753 38.824 81.1833 37.704C79.3913 36.552 77.9673 34.936 76.9113 32.856C75.8873 30.744 75.3753 28.312 75.3753 25.56ZM95.4393 25.608C95.4393 23.56 94.8633 21.944 93.7113 20.76C92.5913 19.576 91.2153 18.984 89.5833 18.984C87.9513 18.984 86.5593 19.576 85.4073 20.76C84.2873 21.912 83.7273 23.512 83.7273 25.56C83.7273 27.608 84.2873 29.24 85.4073 30.456C86.5593 31.64 87.9513 32.232 89.5833 32.232C91.2153 32.232 92.5913 31.64 93.7113 30.456C94.8633 29.272 95.4393 27.656 95.4393 25.608ZM136.033 12.216V39H127.825V35.352C126.993 36.536 125.857 37.496 124.417 38.232C123.009 38.936 121.441 39.288 119.713 39.288C117.665 39.288 115.857 38.84 114.289 37.944C112.721 37.016 111.505 35.688 110.641 33.96C109.777 32.232 109.345 30.2 109.345 27.864V12.216H117.505V26.76C117.505 28.552 117.969 29.944 118.897 30.936C119.825 31.928 121.073 32.424 122.641 32.424C124.241 32.424 125.505 31.928 126.433 30.936C127.361 29.944 127.825 28.552 127.825 26.76V12.216H136.033Z" fill="#3CE17E"/>
</svg>
